solid 
 facet normal -1.000000e+00  0.000000e+00  0.000000e+00
   outer loop
     vertex  5.000000e-02 -1.000000e+00  8.500000e-01
     vertex  5.000000e-02  1.000000e+00  3.500000e-01
     vertex  5.000000e-02 -1.000000e+00  3.500000e-01
   endloop
 endfacet
 facet normal -1.000000e+00  0.000000e+00  0.000000e+00
   outer loop
     vertex  5.000000e-02 -1.000000e+00  8.500000e-01
     vertex  5.000000e-02  1.000000e+00  8.500000e-01
     vertex  5.000000e-02  1.000000e+00  3.500000e-01
   endloop
 endfacet
 facet normal  1.000000e+00  0.000000e+00  0.000000e+00
   outer loop
     vertex  1.450000e+00 -1.000000e+00  8.500000e-01
     vertex  1.450000e+00 -1.000000e+00  3.500000e-01
     vertex  1.450000e+00  1.000000e+00  3.500000e-01
   endloop
 endfacet
 facet normal  1.000000e+00 -0.000000e+00  0.000000e+00
   outer loop
     vertex  1.450000e+00 -1.000000e+00  8.500000e-01
     vertex  1.450000e+00  1.000000e+00  3.500000e-01
     vertex  1.450000e+00  1.000000e+00  8.500000e-01
   endloop
 endfacet
 facet normal  0.000000e+00 -1.000000e+00 -0.000000e+00
   outer loop
     vertex  1.450000e+00 -1.000000e+00  8.500000e-01
     vertex  5.000000e-02 -1.000000e+00  3.500000e-01
     vertex  1.450000e+00 -1.000000e+00  3.500000e-01
   endloop
 endfacet
 facet normal -0.000000e+00 -1.000000e+00  0.000000e+00
   outer loop
     vertex  1.450000e+00 -1.000000e+00  8.500000e-01
     vertex  5.000000e-02 -1.000000e+00  8.500000e-01
     vertex  5.000000e-02 -1.000000e+00  3.500000e-01
   endloop
 endfacet
 facet normal  0.000000e+00  1.000000e+00  0.000000e+00
   outer loop
     vertex  1.450000e+00  1.000000e+00  8.500000e-01
     vertex  1.450000e+00  1.000000e+00  3.500000e-01
     vertex  5.000000e-02  1.000000e+00  3.500000e-01
   endloop
 endfacet
 facet normal  0.000000e+00  1.000000e+00  0.000000e+00
   outer loop
     vertex  1.450000e+00  1.000000e+00  8.500000e-01
     vertex  5.000000e-02  1.000000e+00  3.500000e-01
     vertex  5.000000e-02  1.000000e+00  8.500000e-01
   endloop
 endfacet
 facet normal -0.000000e+00  0.000000e+00 -1.000000e+00
   outer loop
     vertex  1.450000e+00  1.000000e+00  3.500000e-01
     vertex  5.000000e-02 -1.000000e+00  3.500000e-01
     vertex  5.000000e-02  1.000000e+00  3.500000e-01
   endloop
 endfacet
 facet normal  0.000000e+00 -0.000000e+00 -1.000000e+00
   outer loop
     vertex  1.450000e+00  1.000000e+00  3.500000e-01
     vertex  1.450000e+00 -1.000000e+00  3.500000e-01
     vertex  5.000000e-02 -1.000000e+00  3.500000e-01
   endloop
 endfacet
 facet normal  0.000000e+00  0.000000e+00  1.000000e+00
   outer loop
     vertex  1.450000e+00  1.000000e+00  8.500000e-01
     vertex  5.000000e-02  1.000000e+00  8.500000e-01
     vertex  5.000000e-02 -1.000000e+00  8.500000e-01
   endloop
 endfacet
 facet normal  0.000000e+00  0.000000e+00  1.000000e+00
   outer loop
     vertex  1.450000e+00  1.000000e+00  8.500000e-01
     vertex  5.000000e-02 -1.000000e+00  8.500000e-01
     vertex  1.450000e+00 -1.000000e+00  8.500000e-01
   endloop
 endfacet
endsolid
