solid 
 facet normal -1.000000e+00  0.000000e+00  0.000000e+00
   outer loop
     vertex -3.123500e-01 -6.277503e-02  3.123500e-01
     vertex -3.123500e-01  6.277503e-02 -3.123500e-01
     vertex -3.123500e-01 -6.277503e-02 -3.123500e-01
   endloop
 endfacet
 facet normal -1.000000e+00  0.000000e+00  0.000000e+00
   outer loop
     vertex -3.123500e-01 -6.277503e-02  3.123500e-01
     vertex -3.123500e-01  6.277503e-02  3.123500e-01
     vertex -3.123500e-01  6.277503e-02 -3.123500e-01
   endloop
 endfacet
 facet normal  1.000000e+00  0.000000e+00  0.000000e+00
   outer loop
     vertex  3.123500e-01 -6.277503e-02  3.123500e-01
     vertex  3.123500e-01 -6.277503e-02 -3.123500e-01
     vertex  3.123500e-01  6.277503e-02 -3.123500e-01
   endloop
 endfacet
 facet normal  1.000000e+00 -0.000000e+00  0.000000e+00
   outer loop
     vertex  3.123500e-01 -6.277503e-02  3.123500e-01
     vertex  3.123500e-01  6.277503e-02 -3.123500e-01
     vertex  3.123500e-01  6.277503e-02  3.123500e-01
   endloop
 endfacet
 facet normal  0.000000e+00 -1.000000e+00 -0.000000e+00
   outer loop
     vertex  3.123500e-01 -6.277503e-02  3.123500e-01
     vertex -3.123500e-01 -6.277503e-02 -3.123500e-01
     vertex  3.123500e-01 -6.277503e-02 -3.123500e-01
   endloop
 endfacet
 facet normal -0.000000e+00 -1.000000e+00  0.000000e+00
   outer loop
     vertex  3.123500e-01 -6.277503e-02  3.123500e-01
     vertex -3.123500e-01 -6.277503e-02  3.123500e-01
     vertex -3.123500e-01 -6.277503e-02 -3.123500e-01
   endloop
 endfacet
 facet normal  0.000000e+00  1.000000e+00  0.000000e+00
   outer loop
     vertex  3.123500e-01  6.277503e-02  3.123500e-01
     vertex  3.123500e-01  6.277503e-02 -3.123500e-01
     vertex -3.123500e-01  6.277503e-02 -3.123500e-01
   endloop
 endfacet
 facet normal  0.000000e+00  1.000000e+00  0.000000e+00
   outer loop
     vertex  3.123500e-01  6.277503e-02  3.123500e-01
     vertex -3.123500e-01  6.277503e-02 -3.123500e-01
     vertex -3.123500e-01  6.277503e-02  3.123500e-01
   endloop
 endfacet
 facet normal -0.000000e+00  0.000000e+00 -1.000000e+00
   outer loop
     vertex  3.123500e-01  6.277503e-02 -3.123500e-01
     vertex -3.123500e-01 -6.277503e-02 -3.123500e-01
     vertex -3.123500e-01  6.277503e-02 -3.123500e-01
   endloop
 endfacet
 facet normal  0.000000e+00 -0.000000e+00 -1.000000e+00
   outer loop
     vertex  3.123500e-01  6.277503e-02 -3.123500e-01
     vertex  3.123500e-01 -6.277503e-02 -3.123500e-01
     vertex -3.123500e-01 -6.277503e-02 -3.123500e-01
   endloop
 endfacet
 facet normal  0.000000e+00  0.000000e+00  1.000000e+00
   outer loop
     vertex  3.123500e-01  6.277503e-02  3.123500e-01
     vertex -3.123500e-01  6.277503e-02  3.123500e-01
     vertex -3.123500e-01 -6.277503e-02  3.123500e-01
   endloop
 endfacet
 facet normal  0.000000e+00  0.000000e+00  1.000000e+00
   outer loop
     vertex  3.123500e-01  6.277503e-02  3.123500e-01
     vertex -3.123500e-01 -6.277503e-02  3.123500e-01
     vertex  3.123500e-01 -6.277503e-02  3.123500e-01
   endloop
 endfacet
endsolid
